# Native Windows Desktop Duplication API recording
# Format: n:<frame_number> pts_time:<seconds> perf_counter_ms:<milliseconds>
n:     0 pts_time:0.000540 perf_counter_ms:3592000.961
n:     1 pts_time:0.028918 perf_counter_ms:3592029.339
n:     2 pts_time:0.069235 perf_counter_ms:3592069.657
n:     3 pts_time:0.094204 perf_counter_ms:3592094.625
n:     4 pts_time:0.127377 perf_counter_ms:3592127.799
n:     5 pts_time:0.160952 perf_counter_ms:3592161.373
n:     6 pts_time:0.193600 perf_counter_ms:3592194.021
n:     7 pts_time:0.225658 perf_counter_ms:3592226.079
n:     8 pts_time:0.260466 perf_counter_ms:3592260.887
n:     9 pts_time:0.293522 perf_counter_ms:3592293.943
n:    10 pts_time:0.326884 perf_counter_ms:3592327.305
n:    11 pts_time:0.359984 perf_counter_ms:3592360.405
n:    12 pts_time:0.392835 perf_counter_ms:3592393.257
n:    13 pts_time:0.424042 perf_counter_ms:3592424.463
n:    14 pts_time:0.458049 perf_counter_ms:3592458.471
n:    15 pts_time:0.492670 perf_counter_ms:3592493.092
n:    16 pts_time:0.525813 perf_counter_ms:3592526.234
n:    17 pts_time:0.558679 perf_counter_ms:3592559.101
n:    18 pts_time:0.592421 perf_counter_ms:3592592.843
n:    19 pts_time:0.624958 perf_counter_ms:3592625.379
n:    20 pts_time:0.658871 perf_counter_ms:3592659.292
n:    21 pts_time:0.692311 perf_counter_ms:3592692.733
n:    22 pts_time:0.724727 perf_counter_ms:3592725.148
n:    23 pts_time:0.758566 perf_counter_ms:3592758.988
n:    24 pts_time:0.791105 perf_counter_ms:3592791.527
n:    25 pts_time:0.824722 perf_counter_ms:3592825.143
n:    26 pts_time:0.858496 perf_counter_ms:3592858.918
n:    27 pts_time:0.892320 perf_counter_ms:3592892.741
n:    28 pts_time:0.925666 perf_counter_ms:3592926.087
n:    29 pts_time:0.958771 perf_counter_ms:3592959.192
n:    30 pts_time:0.991155 perf_counter_ms:3592991.576
n:    31 pts_time:1.025237 perf_counter_ms:3593025.659
n:    32 pts_time:1.057823 perf_counter_ms:3593058.244
n:    33 pts_time:1.091815 perf_counter_ms:3593092.236
n:    34 pts_time:1.128540 perf_counter_ms:3593128.962
n:    35 pts_time:1.162988 perf_counter_ms:3593163.409
n:    36 pts_time:1.192864 perf_counter_ms:3593193.285
n:    37 pts_time:1.227360 perf_counter_ms:3593227.781
n:    38 pts_time:1.259787 perf_counter_ms:3593260.209
n:    39 pts_time:1.292391 perf_counter_ms:3593292.812
n:    40 pts_time:1.324665 perf_counter_ms:3593325.086
n:    41 pts_time:1.357706 perf_counter_ms:3593358.127
n:    42 pts_time:1.390709 perf_counter_ms:3593391.131
n:    43 pts_time:1.424043 perf_counter_ms:3593424.464
n:    44 pts_time:1.458067 perf_counter_ms:3593458.489
n:    45 pts_time:1.490284 perf_counter_ms:3593490.706
n:    46 pts_time:1.522731 perf_counter_ms:3593523.152
n:    47 pts_time:1.556404 perf_counter_ms:3593556.825
n:    48 pts_time:1.589217 perf_counter_ms:3593589.638
n:    49 pts_time:1.622641 perf_counter_ms:3593623.063
n:    50 pts_time:1.655564 perf_counter_ms:3593655.985
n:    51 pts_time:1.691512 perf_counter_ms:3593691.933
n:    52 pts_time:1.722793 perf_counter_ms:3593723.214
n:    53 pts_time:1.755687 perf_counter_ms:3593756.108
n:    54 pts_time:1.788982 perf_counter_ms:3593789.404
n:    55 pts_time:1.822126 perf_counter_ms:3593822.547
n:    56 pts_time:1.856160 perf_counter_ms:3593856.582
n:    57 pts_time:1.888744 perf_counter_ms:3593889.165
n:    58 pts_time:1.921684 perf_counter_ms:3593922.105
n:    59 pts_time:1.954008 perf_counter_ms:3593954.429
n:    60 pts_time:1.989982 perf_counter_ms:3593990.403
n:    61 pts_time:2.023489 perf_counter_ms:3594023.911
n:    62 pts_time:2.056698 perf_counter_ms:3594057.119
n:    63 pts_time:2.090738 perf_counter_ms:3594091.159
n:    64 pts_time:2.122658 perf_counter_ms:3594123.079
n:    65 pts_time:2.154646 perf_counter_ms:3594155.068
n:    66 pts_time:2.188311 perf_counter_ms:3594188.732
n:    67 pts_time:2.220330 perf_counter_ms:3594220.751
n:    68 pts_time:2.254133 perf_counter_ms:3594254.555
n:    69 pts_time:2.287581 perf_counter_ms:3594288.002
n:    70 pts_time:2.319276 perf_counter_ms:3594319.698
n:    71 pts_time:2.352402 perf_counter_ms:3594352.824
n:    72 pts_time:2.385524 perf_counter_ms:3594385.945
n:    73 pts_time:2.418914 perf_counter_ms:3594419.336
n:    74 pts_time:2.452124 perf_counter_ms:3594452.546
n:    75 pts_time:2.486075 perf_counter_ms:3594486.497
n:    76 pts_time:2.518636 perf_counter_ms:3594519.057
n:    77 pts_time:2.552428 perf_counter_ms:3594552.850
n:    78 pts_time:2.585136 perf_counter_ms:3594585.557
n:    79 pts_time:2.619072 perf_counter_ms:3594619.493
n:    80 pts_time:2.652281 perf_counter_ms:3594652.702
n:    81 pts_time:2.685270 perf_counter_ms:3594685.692
n:    82 pts_time:2.717295 perf_counter_ms:3594717.717
n:    83 pts_time:2.752930 perf_counter_ms:3594753.352
n:    84 pts_time:2.784221 perf_counter_ms:3594784.642
n:    85 pts_time:2.819291 perf_counter_ms:3594819.713
n:    86 pts_time:2.851489 perf_counter_ms:3594851.911
n:    87 pts_time:2.885389 perf_counter_ms:3594885.810
n:    88 pts_time:2.919822 perf_counter_ms:3594920.244
n:    89 pts_time:2.953442 perf_counter_ms:3594953.864
n:    90 pts_time:2.985251 perf_counter_ms:3594985.672
n:    91 pts_time:3.019160 perf_counter_ms:3595019.581
n:    92 pts_time:3.053411 perf_counter_ms:3595053.833
n:    93 pts_time:3.085055 perf_counter_ms:3595085.476
n:    94 pts_time:3.119151 perf_counter_ms:3595119.573
n:    95 pts_time:3.150940 perf_counter_ms:3595151.362
n:    96 pts_time:3.184382 perf_counter_ms:3595184.803
n:    97 pts_time:3.217323 perf_counter_ms:3595217.745
n:    98 pts_time:3.250715 perf_counter_ms:3595251.137
n:    99 pts_time:3.281951 perf_counter_ms:3595282.372
n:   100 pts_time:3.316689 perf_counter_ms:3595317.111
n:   101 pts_time:3.348464 perf_counter_ms:3595348.885
n:   102 pts_time:3.382074 perf_counter_ms:3595382.496
n:   103 pts_time:3.416328 perf_counter_ms:3595416.750
n:   104 pts_time:3.448305 perf_counter_ms:3595448.726
n:   105 pts_time:3.483309 perf_counter_ms:3595483.730
n:   106 pts_time:3.515620 perf_counter_ms:3595516.041
n:   107 pts_time:3.549829 perf_counter_ms:3595550.250
n:   108 pts_time:3.582155 perf_counter_ms:3595582.576
n:   109 pts_time:3.616143 perf_counter_ms:3595616.564
n:   110 pts_time:3.648902 perf_counter_ms:3595649.323
n:   111 pts_time:3.682342 perf_counter_ms:3595682.763
n:   112 pts_time:3.715409 perf_counter_ms:3595715.830
n:   113 pts_time:3.748697 perf_counter_ms:3595749.118
n:   114 pts_time:3.780552 perf_counter_ms:3595780.973
n:   115 pts_time:3.813827 perf_counter_ms:3595814.249
n:   116 pts_time:3.846521 perf_counter_ms:3595846.942
n:   117 pts_time:3.878622 perf_counter_ms:3595879.043
n:   118 pts_time:3.911796 perf_counter_ms:3595912.218
n:   119 pts_time:3.944718 perf_counter_ms:3595945.140
n:   120 pts_time:3.979272 perf_counter_ms:3595979.693
n:   121 pts_time:4.011891 perf_counter_ms:3596012.313
n:   122 pts_time:4.045117 perf_counter_ms:3596045.538
n:   123 pts_time:4.077737 perf_counter_ms:3596078.158
n:   124 pts_time:4.111021 perf_counter_ms:3596111.442
n:   125 pts_time:4.144653 perf_counter_ms:3596145.075
n:   126 pts_time:4.176925 perf_counter_ms:3596177.346
n:   127 pts_time:4.211129 perf_counter_ms:3596211.551
n:   128 pts_time:4.243577 perf_counter_ms:3596243.998
n:   129 pts_time:4.277257 perf_counter_ms:3596277.678
n:   130 pts_time:4.310368 perf_counter_ms:3596310.789
n:   131 pts_time:4.344363 perf_counter_ms:3596344.784
n:   132 pts_time:4.376845 perf_counter_ms:3596377.266
n:   133 pts_time:4.411316 perf_counter_ms:3596411.737
n:   134 pts_time:4.444699 perf_counter_ms:3596445.121
n:   135 pts_time:4.479409 perf_counter_ms:3596479.830
n:   136 pts_time:4.513259 perf_counter_ms:3596513.680
n:   137 pts_time:4.545549 perf_counter_ms:3596545.971
n:   138 pts_time:4.579870 perf_counter_ms:3596580.291
n:   139 pts_time:4.612359 perf_counter_ms:3596612.780
n:   140 pts_time:4.645924 perf_counter_ms:3596646.345
n:   141 pts_time:4.678554 perf_counter_ms:3596678.975
n:   142 pts_time:4.711836 perf_counter_ms:3596712.257
n:   143 pts_time:4.745881 perf_counter_ms:3596746.303
n:   144 pts_time:4.777990 perf_counter_ms:3596778.411
n:   145 pts_time:4.809374 perf_counter_ms:3596809.795
n:   146 pts_time:4.842407 perf_counter_ms:3596842.828
n:   147 pts_time:4.877969 perf_counter_ms:3596878.391
n:   148 pts_time:4.909031 perf_counter_ms:3596909.452
n:   149 pts_time:4.944152 perf_counter_ms:3596944.573
n:   150 pts_time:4.977276 perf_counter_ms:3596977.697
n:   151 pts_time:5.008840 perf_counter_ms:3597009.262
n:   152 pts_time:5.043266 perf_counter_ms:3597043.687
n:   153 pts_time:5.075435 perf_counter_ms:3597075.856
n:   154 pts_time:5.108002 perf_counter_ms:3597108.423
n:   155 pts_time:5.141439 perf_counter_ms:3597141.861
n:   156 pts_time:5.175875 perf_counter_ms:3597176.296
n:   157 pts_time:5.207946 perf_counter_ms:3597208.368
n:   158 pts_time:5.241210 perf_counter_ms:3597241.632
n:   159 pts_time:5.274076 perf_counter_ms:3597274.497
n:   160 pts_time:5.306431 perf_counter_ms:3597306.852
n:   161 pts_time:5.343370 perf_counter_ms:3597343.792
n:   162 pts_time:5.375211 perf_counter_ms:3597375.632
n:   163 pts_time:5.409275 perf_counter_ms:3597409.697
n:   164 pts_time:5.443296 perf_counter_ms:3597443.717
n:   165 pts_time:5.475633 perf_counter_ms:3597476.055
n:   166 pts_time:5.508282 perf_counter_ms:3597508.704
n:   167 pts_time:5.542935 perf_counter_ms:3597543.356
n:   168 pts_time:5.575238 perf_counter_ms:3597575.659
n:   169 pts_time:5.608559 perf_counter_ms:3597608.981
n:   170 pts_time:5.641619 perf_counter_ms:3597642.040
n:   171 pts_time:5.676909 perf_counter_ms:3597677.331
n:   172 pts_time:5.710527 perf_counter_ms:3597710.949
n:   173 pts_time:5.742059 perf_counter_ms:3597742.480
n:   174 pts_time:5.773942 perf_counter_ms:3597774.363
n:   175 pts_time:5.807085 perf_counter_ms:3597807.506
n:   176 pts_time:5.842746 perf_counter_ms:3597843.167
n:   177 pts_time:5.875738 perf_counter_ms:3597876.159
n:   178 pts_time:5.907116 perf_counter_ms:3597907.538
n:   179 pts_time:5.942982 perf_counter_ms:3597943.404
n:   180 pts_time:5.977573 perf_counter_ms:3597977.994
n:   181 pts_time:6.010848 perf_counter_ms:3598011.269
n:   182 pts_time:6.036781 perf_counter_ms:3598037.203
n:   183 pts_time:6.074373 perf_counter_ms:3598074.794
n:   184 pts_time:6.109712 perf_counter_ms:3598110.133
n:   185 pts_time:6.141680 perf_counter_ms:3598142.101
n:   186 pts_time:6.171505 perf_counter_ms:3598171.927
n:   187 pts_time:6.205059 perf_counter_ms:3598205.481
n:   188 pts_time:6.238831 perf_counter_ms:3598239.252
n:   189 pts_time:6.271570 perf_counter_ms:3598271.991
n:   190 pts_time:6.305081 perf_counter_ms:3598305.502
n:   191 pts_time:6.338955 perf_counter_ms:3598339.376
n:   192 pts_time:6.374311 perf_counter_ms:3598374.733
n:   193 pts_time:6.405045 perf_counter_ms:3598405.467
n:   194 pts_time:6.438255 perf_counter_ms:3598438.676
n:   195 pts_time:6.471487 perf_counter_ms:3598471.908
n:   196 pts_time:6.504256 perf_counter_ms:3598504.677
n:   197 pts_time:6.537659 perf_counter_ms:3598538.081
n:   198 pts_time:6.572415 perf_counter_ms:3598572.837
n:   199 pts_time:6.606975 perf_counter_ms:3598607.397
n:   200 pts_time:6.642357 perf_counter_ms:3598642.778
n:   201 pts_time:6.673914 perf_counter_ms:3598674.335
n:   202 pts_time:6.705934 perf_counter_ms:3598706.355
n:   203 pts_time:6.739821 perf_counter_ms:3598740.243
n:   204 pts_time:6.773582 perf_counter_ms:3598774.003
n:   205 pts_time:6.807030 perf_counter_ms:3598807.452
n:   206 pts_time:6.839803 perf_counter_ms:3598840.224
n:   207 pts_time:6.872897 perf_counter_ms:3598873.318
n:   208 pts_time:6.906847 perf_counter_ms:3598907.268
n:   209 pts_time:6.939567 perf_counter_ms:3598939.988
n:   210 pts_time:6.973648 perf_counter_ms:3598974.070
n:   211 pts_time:7.006660 perf_counter_ms:3599007.081
n:   212 pts_time:7.040489 perf_counter_ms:3599040.910
n:   213 pts_time:7.072583 perf_counter_ms:3599073.004
n:   214 pts_time:7.106299 perf_counter_ms:3599106.721
n:   215 pts_time:7.138386 perf_counter_ms:3599138.807
n:   216 pts_time:7.173764 perf_counter_ms:3599174.186
n:   217 pts_time:7.207882 perf_counter_ms:3599208.303
n:   218 pts_time:7.241060 perf_counter_ms:3599241.482
n:   219 pts_time:7.272530 perf_counter_ms:3599272.951
n:   220 pts_time:7.306824 perf_counter_ms:3599307.245
n:   221 pts_time:7.337378 perf_counter_ms:3599337.799
n:   222 pts_time:7.370921 perf_counter_ms:3599371.342
n:   223 pts_time:7.404054 perf_counter_ms:3599404.476
n:   224 pts_time:7.435530 perf_counter_ms:3599435.952
n:   225 pts_time:7.469060 perf_counter_ms:3599469.481
n:   226 pts_time:7.502702 perf_counter_ms:3599503.123
n:   227 pts_time:7.538506 perf_counter_ms:3599538.927
n:   228 pts_time:7.571558 perf_counter_ms:3599571.979
n:   229 pts_time:7.602421 perf_counter_ms:3599602.843
n:   230 pts_time:7.639464 perf_counter_ms:3599639.886
n:   231 pts_time:7.671729 perf_counter_ms:3599672.151
n:   232 pts_time:7.708457 perf_counter_ms:3599708.878
n:   233 pts_time:7.739971 perf_counter_ms:3599740.392
n:   234 pts_time:7.771737 perf_counter_ms:3599772.159
n:   235 pts_time:7.805833 perf_counter_ms:3599806.254
n:   236 pts_time:7.839216 perf_counter_ms:3599839.638
n:   237 pts_time:7.872159 perf_counter_ms:3599872.581
n:   238 pts_time:7.906217 perf_counter_ms:3599906.639
n:   239 pts_time:7.938063 perf_counter_ms:3599938.485
n:   240 pts_time:7.973589 perf_counter_ms:3599974.010
n:   241 pts_time:8.004799 perf_counter_ms:3600005.221
n:   242 pts_time:8.039456 perf_counter_ms:3600039.877
n:   243 pts_time:8.073718 perf_counter_ms:3600074.139
n:   244 pts_time:8.105588 perf_counter_ms:3600106.009
n:   245 pts_time:8.138230 perf_counter_ms:3600138.651
n:   246 pts_time:8.174682 perf_counter_ms:3600175.103
n:   247 pts_time:8.205917 perf_counter_ms:3600206.338
n:   248 pts_time:8.240125 perf_counter_ms:3600240.546
n:   249 pts_time:8.272532 perf_counter_ms:3600272.953
n:   250 pts_time:8.305096 perf_counter_ms:3600305.518
n:   251 pts_time:8.341493 perf_counter_ms:3600341.914
n:   252 pts_time:8.373858 perf_counter_ms:3600374.280
n:   253 pts_time:8.406613 perf_counter_ms:3600407.034
n:   254 pts_time:8.438461 perf_counter_ms:3600438.882
n:   255 pts_time:8.472214 perf_counter_ms:3600472.635
n:   256 pts_time:8.505668 perf_counter_ms:3600506.089
n:   257 pts_time:8.539191 perf_counter_ms:3600539.612
n:   258 pts_time:8.568821 perf_counter_ms:3600569.242
n:   259 pts_time:8.602389 perf_counter_ms:3600602.810
n:   260 pts_time:8.634729 perf_counter_ms:3600635.150
n:   261 pts_time:8.668988 perf_counter_ms:3600669.409
n:   262 pts_time:8.704119 perf_counter_ms:3600704.540
n:   263 pts_time:8.736042 perf_counter_ms:3600736.463
n:   264 pts_time:8.771221 perf_counter_ms:3600771.642
n:   265 pts_time:8.802505 perf_counter_ms:3600802.927
n:   266 pts_time:8.835527 perf_counter_ms:3600835.948
n:   267 pts_time:8.868288 perf_counter_ms:3600868.709
n:   268 pts_time:8.901137 perf_counter_ms:3600901.559
n:   269 pts_time:8.934791 perf_counter_ms:3600935.212
n:   270 pts_time:8.967994 perf_counter_ms:3600968.415
n:   271 pts_time:9.001737 perf_counter_ms:3601002.158
n:   272 pts_time:9.035378 perf_counter_ms:3601035.799
n:   273 pts_time:9.067414 perf_counter_ms:3601067.836
n:   274 pts_time:9.099877 perf_counter_ms:3601100.298
n:   275 pts_time:9.133414 perf_counter_ms:3601133.835
n:   276 pts_time:9.166485 perf_counter_ms:3601166.906
n:   277 pts_time:9.201068 perf_counter_ms:3601201.489
n:   278 pts_time:9.234561 perf_counter_ms:3601234.983
n:   279 pts_time:9.268455 perf_counter_ms:3601268.877
n:   280 pts_time:9.301758 perf_counter_ms:3601302.179
n:   281 pts_time:9.334002 perf_counter_ms:3601334.424
n:   282 pts_time:9.366734 perf_counter_ms:3601367.156
n:   283 pts_time:9.401134 perf_counter_ms:3601401.555
n:   284 pts_time:9.433897 perf_counter_ms:3601434.318
n:   285 pts_time:9.468186 perf_counter_ms:3601468.608
n:   286 pts_time:9.500931 perf_counter_ms:3601501.352
n:   287 pts_time:9.533796 perf_counter_ms:3601534.217
n:   288 pts_time:9.565568 perf_counter_ms:3601565.989
n:   289 pts_time:9.599828 perf_counter_ms:3601600.250
n:   290 pts_time:9.633479 perf_counter_ms:3601633.900
n:   291 pts_time:9.666580 perf_counter_ms:3601667.002
n:   292 pts_time:9.700372 perf_counter_ms:3601700.794
n:   293 pts_time:9.733312 perf_counter_ms:3601733.733
n:   294 pts_time:9.766599 perf_counter_ms:3601767.020
n:   295 pts_time:9.799957 perf_counter_ms:3601800.379
n:   296 pts_time:9.833246 perf_counter_ms:3601833.667
n:   297 pts_time:9.866273 perf_counter_ms:3601866.694
n:   298 pts_time:9.900474 perf_counter_ms:3601900.896
n:   299 pts_time:9.933897 perf_counter_ms:3601934.318
n:   300 pts_time:9.967590 perf_counter_ms:3601968.011
n:   301 pts_time:9.999751 perf_counter_ms:3602000.173
n:   302 pts_time:10.032947 perf_counter_ms:3602033.368
n:   303 pts_time:10.066281 perf_counter_ms:3602066.702
n:   304 pts_time:10.099397 perf_counter_ms:3602099.819
n:   305 pts_time:10.132676 perf_counter_ms:3602133.098
n:   306 pts_time:10.165955 perf_counter_ms:3602166.376
n:   307 pts_time:10.219489 perf_counter_ms:3602219.911
n:   308 pts_time:10.235989 perf_counter_ms:3602236.410
n:   309 pts_time:10.265596 perf_counter_ms:3602266.017
